/* XPM */
static char * all2mp3_xpm[] = {
"32 32 197 2",
"  	c None",
". 	c #3C366C",
"+ 	c #322D66",
"@ 	c #1A1657",
"# 	c #1C1758",
"$ 	c #1B1658",
"% 	c #1D1958",
"& 	c #413C71",
"* 	c #5B5583",
"= 	c #4C4678",
"- 	c #1C1959",
"; 	c #1C1859",
"> 	c #3A3664",
", 	c #4A466B",
"' 	c #696881",
") 	c #686680",
"! 	c #514D72",
"~ 	c #403C6B",
"{ 	c #1A1656",
"] 	c #2D2964",
"^ 	c #2A2560",
"/ 	c #1E1B5B",
"( 	c #363261",
"_ 	c #858689",
": 	c #3E3A6B",
"< 	c #181456",
"[ 	c #57527E",
"} 	c #383366",
"| 	c #423E62",
"1 	c #514C75",
"2 	c #191657",
"3 	c #4A4474",
"4 	c #635D88",
"5 	c #181556",
"6 	c #1C1857",
"7 	c #4D497A",
"8 	c #68638C",
"9 	c #B8B7B8",
"0 	c #514C79",
"a 	c #1D1959",
"b 	c #9794B0",
"c 	c #1E1B5A",
"d 	c #494173",
"e 	c #342F68",
"f 	c #26215D",
"g 	c #241F5D",
"h 	c #211C59",
"i 	c #544E7D",
"j 	c #2C2661",
"k 	c #332E65",
"l 	c #9894AF",
"m 	c #2C2863",
"n 	c #777297",
"o 	c #6D6890",
"p 	c #1D1A59",
"q 	c #1A1757",
"r 	c #2A2661",
"s 	c #494475",
"t 	c #1B1757",
"u 	c #4C486E",
"v 	c #6C678F",
"w 	c #241E5A",
"x 	c #1B1758",
"y 	c #8E8BA8",
"z 	c #413C70",
"A 	c #312C64",
"B 	c #1B1656",
"C 	c #2C275F",
"D 	c #1F1C5B",
"E 	c #9B98A5",
"F 	c #635E89",
"G 	c #3A346A",
"H 	c #444070",
"I 	c #66608B",
"J 	c #28235E",
"K 	c #251F5D",
"L 	c #241E5B",
"M 	c #6A658E",
"N 	c #1E1958",
"O 	c #363268",
"P 	c #484477",
"Q 	c #918F9D",
"R 	c #1C1757",
"S 	c #514B7A",
"T 	c #383269",
"U 	c #A19CB5",
"V 	c #666089",
"W 	c #201B59",
"X 	c #1F1D5B",
"Y 	c #353166",
"Z 	c #1E1A5A",
"` 	c #565474",
" .	c #322C65",
"..	c #3C356B",
"+.	c #7B769A",
"@.	c #1B1858",
"#.	c #37325E",
"$.	c #585483",
"%.	c #4D486F",
"&.	c #4E497A",
"*.	c #332E66",
"=.	c #24205A",
"-.	c #373167",
";.	c #545080",
">.	c #363161",
",.	c #767298",
"'.	c #272360",
").	c #58527F",
"!.	c #1A1758",
"~.	c #6E6D77",
"{.	c #383367",
"].	c #1D1A5A",
"^.	c #312D64",
"/.	c #514B7B",
"(.	c #26205E",
"_.	c #7D779A",
":.	c #26215E",
"<.	c #353160",
"[.	c #1D1957",
"}.	c #343066",
"|.	c #9894B2",
"1.	c #231E5B",
"2.	c #55507F",
"3.	c #201C58",
"4.	c #AEAFB1",
"5.	c #1F1A59",
"6.	c #5F5E7E",
"7.	c #757191",
"8.	c #2B2760",
"9.	c #25215E",
"0.	c #1A1658",
"a.	c #616070",
"b.	c #464073",
"c.	c #403C64",
"d.	c #89879D",
"e.	c #1B1654",
"f.	c #231F5B",
"g.	c #CCCCD4",
"h.	c #25215F",
"i.	c #231E5C",
"j.	c #34305E",
"k.	c #57546F",
"l.	c #69697A",
"m.	c #201C5B",
"n.	c #9B96B1",
"o.	c #1C175A",
"p.	c #1D175A",
"q.	c #2B2662",
"r.	c #474275",
"s.	c #211D57",
"t.	c #27225E",
"u.	c #A5A6AA",
"v.	c #241F55",
"w.	c #7C7B8A",
"x.	c #85829A",
"y.	c #8B86A6",
"z.	c #433D70",
"A.	c #716C92",
"B.	c #726D93",
"C.	c #1A1759",
"D.	c #56546A",
"E.	c #5D5786",
"F.	c #373457",
"G.	c #353058",
"H.	c #4A4577",
"I.	c #3C386E",
"J.	c #221D53",
"K.	c #322E5C",
"L.	c #1B1655",
"M.	c #252160",
"N.	c #69648C",
"O.	c #211D5B",
"P.	c #46436A",
"Q.	c #161255",
"R.	c #1D195A",
"S.	c #434060",
"T.	c #27225F",
"U.	c #484564",
"V.	c #7F7D93",
"W.	c #353067",
"X.	c #4E4B76",
"Y.	c #6C6A85",
"Z.	c #191557",
"`.	c #37325F",
" +	c #312C65",
".+	c #1E1B59",
"++	c #595582",
"@+	c #302B62",
"#+	c #3B366B",
"$+	c #2D2963",
"%+	c #332E67",
"&+	c #353167",
"*+	c #58557C",
"=+	c #171354",
"-+	c #181256",
";+	c #191456",
">+	c #5C5971",
"                                                                ",
"                                                                ",
"                                                                ",
"                                                                ",
"                            . + @ # $ % & *                     ",
"                        = - ; > , ' ) ! ~ { ]                   ",
"                      ^ / ( _               : < [               ",
"                    } - |                     1 2 3             ",
"          4 5 6 7 8   9                         0 a             ",
"          b c d e f g h i                         j k           ",
"            -         l m { n                     o p           ",
"            q               r s                     t u         ",
"      v w   x y               z A                   B C         ",
"    j D - E t F                 G H I J K L g h M   N O         ",
"  P D D - Q R S                   T U           V W X Y         ",
"  @ D D Z `  ...                  +.                  @.#.      ",
"$.D D D / %.&.*.                                    F =.  -.    ",
";.D D D D >.,.'.                ).                  !.~.7 D {.  ",
"  ].D D D ^./.(.                _.                :.<.  c D D   ",
"  [.D D D }.|.1.                                2.3.4.5.D D D 6.",
"  7.!.D D 8.  9.                                0.a.b.D D D D c.",
"    d.e./ f.g.h.                              i.j.  - D D D D k.",
"          l.  m.n.'.o.p.q.                  r.s.  t.D D D D D u.",
"              % v.w.    x.^     y.z.A.    B.C.D.E./ D D D D F.  ",
"              G.            H.I.J.K.L.M.N.O.P.  Q.D D D R.S.    ",
"                            T.U.      V.W.D X.    Y.Z.`.        ",
"                                           +.+      ++@+        ",
"                                            #+$+    %+&+        ",
"                                              *+=+-+;+>+        ",
"                                                                ",
"                                                                ",
"                                                                "};
